<svg width="150" height="106" viewBox="0 0 150 106" fill="none" xmlns="http://www.w3.org/2000/svg">
<path fill-rule="evenodd" clip-rule="evenodd" d="M4 95V98.5C4 98.6698 4.01209 98.8367 4.03544 99C4.08595 99.3531 4.18915 99.6891 4.33682 100C4.58228 100.517 4.95061 100.964 5.40408 101.303C5.91045 101.682 6.52251 101.927 7.18677 101.986C7.28998 101.995 7.39446 102 7.5 102H142.5C143.896 102 145.101 101.182 145.663 100C145.811 99.6891 145.914 99.3531 145.965 99C145.988 98.8367 146 98.6698 146 98.5V95H90V96C90 96.3643 89.9026 96.7058 89.7324 97C89.3866 97.5978 88.7403 98 88 98H62C61.2597 98 60.6134 97.5978 60.2676 97C60.0974 96.7058 60 96.3643 60 96V95H4ZM12 91C10.8954 91 10 90.1046 10 89V10C10 7.23858 12.2386 5 15 5H135C137.761 5 140 7.23858 140 10V89C140 90.1046 139.105 91 138 91H12ZM143.603 105.919C143.243 105.973 142.875 106 142.5 106H7.5C6.95901 106 6.43166 105.943 5.92359 105.834C3.02124 105.213 0.741371 102.913 0.150027 100C0.0516454 99.5153 0 99.0137 0 98.5V93C0 91.8954 0.895431 91 2 91H5V10C5 4.47715 9.47715 0 15 0H135C140.523 0 145 4.47715 145 10V91H148C149.105 91 150 91.8954 150 93V98.5C150 98.6475 149.996 98.7941 149.987 98.9398C149.966 99.3006 149.92 99.6546 149.85 100C149.227 103.07 146.729 105.459 143.603 105.919ZM20 15H130V81H20V15ZM19 11C17.3431 11 16 12.3431 16 14V82C16 83.6569 17.3431 85 19 85H131C132.657 85 134 83.6569 134 82V14C134 12.3431 132.657 11 131 11H19Z" fill="black"/>
</svg>
